<?xml version="1.0" encoding="UTF-8"?>
<svg width="24px" height="24px" viewBox="0 0 24 24" version="1.1" xmlns="http://www.w3.org/2000/svg" xmlns:xlink="http://www.w3.org/1999/xlink">
    <title>postgresql-icon</title>
    <g id="postgresql-icon" stroke="none" fill="none" fill-rule="evenodd" stroke-width="1">
        <g id="pg" transform="translate(2, 2)" stroke="#FFFFFF">
            <g id="Group" stroke-width="0.716">
                <g stroke-linecap="round">
                    <path d="M9.97571931,13.1160789 C9.9052483,15.5356762 9.99333706,17.9722769 10.2382238,18.5571971 C10.4831106,19.1421173 11.0090005,20.3000553 12.815701,19.9276788 C14.3246616,19.6156647 14.8743354,19.0111904 15.1121751,17.6772663 L15.669777,13.4119397 M7.81049751,0.986636257 C7.81049751,0.986636257 -0.367663287,-2.24062697 0.0128801711,5.09553066 C0.0939218335,6.65645145 2.32961465,16.9129592 4.99870418,13.8098215 C5.9729659,12.6765386 6.85385354,11.7898064 6.85385354,11.7898064 M12.2272681,0.397465178 C11.9453841,0.482482649 16.7761718,-1.30713513 19.5227795,2.07911077 C20.4917559,3.2753066 19.3686242,8.16381122 16.6792742,12.0151027" id="Shape" stroke-linejoin="round"></path>
                    <path d="M16.6801551,12.0134023 C16.6801551,12.0134023 16.8563326,12.8465736 19.4109068,12.3381691 C20.5269914,12.1154233 19.8548741,12.9621973 18.7238144,13.4689015 C17.7953588,13.8854871 15.7129405,13.9917589 15.6785859,13.417891 C15.5904971,11.9343361 16.7744101,12.3849287 16.688964,12.0134023 C16.6114459,11.6784335 16.0811515,11.3502661 15.73232,10.5306976 C15.426652,9.81655087 11.5392949,4.33292394 16.8105265,5.14654115 C17.0043217,5.10828329 15.4363418,0.30054526 10.503371,0.230830933 C5.57040025,0.161116606 5.72631737,6.08428386 5.72631737,6.08428386" id="Path" stroke-linejoin="bevel"></path>
                </g>
                <g transform="translate(5.6437, 5.1691)" id="Path" stroke-linejoin="round">
                    <path d="M2.9517023,7.35271483 C2.26460995,8.09406718 2.4672141,8.22414392 1.09302939,8.49705 C-0.297011293,8.77335678 0.520452431,9.26560794 1.05250856,9.3948345 C1.69908009,9.55126665 3.19482729,9.77231208 4.20608629,8.40608131 C4.51439696,7.98949569 4.20432452,7.32635941 3.78149845,7.15802482 C3.57713252,7.07640805 3.30405735,6.97438708 2.95346408,7.35356501 L2.9517023,7.35271483 Z"></path>
                    <path d="M2.90677703,7.33996221 C2.83630602,6.90382258 3.05476615,6.38606618 3.28820138,5.77904143 C3.63879466,4.86935448 4.4474495,3.95966753 3.80087798,1.07162402 C3.31903244,-1.07931801 0.0835321646,0.623581944 0.0835321646,0.915191872 C0.0835321646,1.2068018 0.229759512,2.39449588 0.0306789066,3.7760298 C-0.230944721,5.58010055 1.21987721,7.10531399 2.89004017,6.94973201" stroke-linecap="round"></path>
                </g>
            </g>
            <g id="Group" transform="translate(7.7798, 5.5519)" fill="#FFFFFF">
                <path d="M0.000773223888,0.560055583 C-0.0142018659,0.6739788 0.190164065,0.978747748 0.455311243,1.01964326 C0.720458421,1.06053878 0.946846543,0.822955314 0.961821633,0.708058395 C0.976796722,0.593161475 0.772430791,0.468527528 0.507283613,0.427632014 C0.242136436,0.3867365 0.0139865384,0.447106068 0.000773223888,0.560055583 L0.000773223888,0.560055583 Z" id="Path" stroke-width="0.239"></path>
                <path d="M8.0732275,0.327340635 C8.0873217,0.441263852 7.88383666,0.7460328 7.61868948,0.786928314 C7.35354231,0.827823828 7.12539241,0.590240367 7.11217909,0.475343447 C7.09896578,0.360446527 7.30156993,0.23581258 7.56671711,0.194917066 C7.83186429,0.154021552 8.06001419,0.21439112 8.0732275,0.327340635 Z" id="Path" stroke-width="0.119"></path>
            </g>
            <path d="M16.8008367,5.1482415 C16.8448811,5.93040224 16.6264209,6.46176144 16.5982325,7.29408248 C16.5577117,8.50303093 17.1954744,9.88711537 16.234426,11.2729002" id="Path" stroke-width="0.716" stroke-linecap="round" stroke-linejoin="round"></path>
        </g>
    </g>
</svg>